<?xml version="1.0" standalone="no"?>
<!DOCTYPE svg PUBLIC "-//W3C//DTD SVG 20010904//EN"
 "http://www.w3.org/TR/2001/REC-SVG-20010904/DTD/svg10.dtd">
<svg version="1.0" xmlns="http://www.w3.org/2000/svg"
 width="512.000000pt" height="512.000000pt" viewBox="0 0 512.000000 512.000000"
 preserveAspectRatio="xMidYMid meet">

<g transform="translate(0.000000,512.000000) scale(0.100000,-0.100000)"
fill="#000000" stroke="none">
<path d="M2106 4625 c-234 -195 -429 -363 -435 -373 -5 -10 -35 -313 -66 -673
-30 -360 -59 -670 -63 -689 -7 -31 -35 -55 -267 -231 -168 -127 -263 -204
-268 -220 -10 -32 -347 -2201 -347 -2234 0 -14 9 -34 20 -45 20 -20 33 -20
1808 -20 2022 0 1832 -9 1832 83 0 29 -14 202 -30 386 -32 366 -33 371 -95
371 -44 0 -65 -26 -65 -83 0 -45 33 -453 46 -564 l5 -53 -189 0 -190 0 -5 42
c-16 113 -280 3239 -274 3244 4 5 314 -246 387 -312 10 -10 20 -79 35 -259 18
-204 25 -248 40 -265 24 -27 76 -26 101 1 18 20 18 26 -4 292 -18 218 -26 276
-40 294 -9 12 -134 119 -277 239 -143 119 -262 218 -263 219 -2 2 -12 104 -23
227 -11 123 -24 233 -29 245 -5 12 -201 182 -436 378 -335 279 -433 355 -454
355 -22 0 -119 -76 -454 -355z m384 -117 l0 -253 -361 -229 c-198 -126 -361
-227 -363 -225 -1 2 4 88 13 191 14 162 19 190 36 207 22 21 669 561 673 561
1 0 2 -114 2 -252z m502 -46 c211 -175 329 -280 332 -295 3 -12 77 -868 166
-1902 88 -1034 163 -1904 166 -1932 l6 -53 -516 0 -516 0 0 2241 c0 2128 1
2241 17 2228 10 -8 165 -137 345 -287z m-502 -659 l0 -288 -393 -251 c-215
-138 -394 -247 -396 -241 -7 19 42 562 53 585 7 14 155 114 371 252 198 126
361 230 363 230 1 0 2 -129 2 -287z m0 -742 l0 -288 -426 -272 c-235 -149
-429 -270 -431 -267 -11 11 47 600 60 608 6 4 188 119 402 257 215 137 391
250 393 250 1 1 2 -129 2 -288z m-966 -423 c-4 -32 -35 -379 -55 -623 -25
-303 -139 -1636 -145 -1682 l-5 -53 -255 0 c-140 0 -254 3 -254 8 0 23 321
2061 327 2079 7 19 365 300 385 302 4 1 5 -14 2 -31z m959 -609 c-14 -14 -917
-588 -920 -585 -3 3 45 584 50 599 1 4 198 133 437 285 l435 278 3 -285 c1
-157 -1 -288 -5 -292z m5 -456 l-3 -288 -495 -316 c-272 -174 -496 -316 -497
-315 -4 3 49 593 55 604 7 12 920 600 935 601 4 1 6 -128 5 -286z m2 -873 l0
-420 -515 0 -515 0 6 88 c4 48 11 95 18 104 8 14 991 648 1003 648 2 0 3 -189
3 -420z"/>
<path d="M4042 2348 c-32 -16 -36 -45 -25 -176 9 -101 12 -117 32 -134 31 -24
62 -23 90 4 23 20 23 25 17 127 -8 121 -20 167 -46 181 -23 12 -38 12 -68 -2z"/>
<path d="M4105 1668 c-31 -17 -35 -28 -34 -93 0 -121 15 -208 39 -227 30 -24
54 -23 86 5 l27 24 -10 129 c-10 120 -13 130 -38 151 -29 26 -41 28 -70 11z"/>
</g>
</svg>
