<?xml version="1.0" standalone="no"?>
<!DOCTYPE svg PUBLIC "-//W3C//DTD SVG 20010904//EN"
 "http://www.w3.org/TR/2001/REC-SVG-20010904/DTD/svg10.dtd">
<svg version="1.0" xmlns="http://www.w3.org/2000/svg"
 width="362.000000pt" height="48.000000pt" viewBox="0 0 362.000000 48.000000"
 preserveAspectRatio="xMidYMid meet">

<g transform="translate(0.000000,48.000000) scale(0.100000,-0.100000)"
fill="#000000" stroke="none">
<path d="M150 432 c-36 -36 -40 -43 -40 -90 0 -42 -4 -54 -25 -70 -20 -16 -28
-36 -40 -103 -23 -132 -39 -119 145 -119 l160 0 0 29 c0 17 -5 33 -11 36 -6 4
-9 -4 -7 -22 2 -20 -1 -28 -12 -28 -15 0 -19 20 -34 198 -7 76 -6 78 13 68 11
-6 22 -23 24 -38 l4 -28 2 28 c0 18 -7 35 -24 49 -14 12 -25 29 -25 39 0 14
-71 89 -85 89 -2 0 -22 -17 -45 -38z m40 -10 c0 -10 -13 -26 -30 -35 -36 -22
-41 -5 -8 30 26 28 38 29 38 5z m50 -7 c20 -21 24 -42 36 -167 19 -206 22
-188 -31 -188 l-45 0 0 190 c0 105 4 190 8 190 5 0 19 -11 32 -25z m-50 -49
c0 -17 -10 -30 -35 -45 l-35 -20 0 23 c0 16 11 31 33 45 40 26 37 26 37 -3z
m0 -66 c0 -17 -50 -60 -71 -60 -17 0 6 48 29 63 35 22 42 21 42 -3z m-95 -140
c-5 -66 -11 -93 -22 -97 -27 -10 -31 12 -17 96 12 73 28 110 42 96 2 -2 1 -45
-3 -95z m95 77 c0 -17 -11 -30 -40 -46 l-40 -22 0 23 c0 17 11 30 38 46 46 26
42 27 42 -1z m0 -61 c0 -16 -12 -31 -41 -50 -45 -30 -54 -29 -45 6 4 17 62 64
84 68 1 0 2 -11 2 -24z m0 -81 c0 -35 0 -35 -45 -35 -25 0 -45 4 -45 9 0 9 69
59 83 60 4 1 7 -15 7 -34z"/>
<path d="M477 313 c-9 -116 -16 -143 -38 -143 -17 0 -19 -8 -19 -65 l0 -65 35
0 c32 0 35 2 35 30 l0 30 95 0 95 0 0 -30 c0 -27 3 -30 30 -30 l30 0 0 65 c0
51 -3 65 -15 65 -12 0 -15 19 -15 110 l0 110 -114 0 -113 0 -6 -77z m153 -68
l0 -75 -51 0 c-44 0 -50 2 -45 17 4 9 9 43 13 75 l6 58 38 0 39 0 0 -75z"/>
<path d="M1453 371 c-51 -24 -73 -63 -73 -129 0 -92 75 -155 165 -138 66 13
122 84 79 100 -28 11 -49 6 -62 -14 -14 -23 -70 -28 -90 -8 -15 15 -16 92 -2
119 13 23 71 26 94 4 16 -17 44 -19 65 -6 35 22 -51 91 -111 91 -13 0 -42 -9
-65 -19z"/>
<path d="M2480 384 c0 -39 59 -63 96 -39 24 15 33 45 14 45 -5 0 -10 -4 -10
-10 0 -5 -16 -10 -35 -10 -19 0 -35 5 -35 10 0 6 -7 10 -15 10 -8 0 -15 -3
-15 -6z"/>
<path d="M2720 245 l0 -145 40 0 40 0 0 45 0 45 39 0 c58 0 105 36 109 84 7
88 -29 116 -154 116 l-74 0 0 -145z m148 43 c3 -26 1 -28 -32 -28 -33 0 -36 2
-36 31 0 28 2 30 33 27 27 -2 33 -8 35 -30z"/>
<path d="M3317 298 c-5 -102 -12 -128 -33 -128 -11 0 -14 -16 -14 -65 l0 -65
30 0 c27 0 30 3 30 30 l0 30 95 0 95 0 0 -30 c0 -28 3 -30 35 -30 l35 0 0 61
c0 52 -3 62 -20 66 -18 5 -20 14 -20 114 l0 109 -114 0 -113 0 -6 -92z m153
-53 l0 -75 -46 0 -45 0 6 58 c10 89 12 92 51 92 l34 0 0 -75z"/>
<path d="M843 303 c-34 -7 -73 -59 -73 -97 0 -103 156 -142 210 -53 24 39 25
70 3 104 -27 41 -78 58 -140 46z m78 -70 c20 -55 -26 -106 -67 -73 -17 15 -19
71 -2 88 22 22 58 14 69 -15z"/>
<path d="M1050 205 l0 -105 30 0 30 0 1 68 1 67 30 -68 c41 -90 62 -89 93 2
24 74 38 69 34 -12 l-3 -52 32 -3 33 -3 -3 103 -3 103 -44 0 -45 0 -20 -57
c-12 -32 -24 -58 -27 -58 -4 0 -17 27 -29 60 l-22 60 -44 0 -44 0 0 -105z"/>
<path d="M1680 285 c0 -20 5 -25 25 -25 25 0 25 -1 25 -80 l0 -80 41 0 41 0
-4 80 -3 80 28 0 c22 0 27 4 27 25 0 25 -1 25 -90 25 -89 0 -90 0 -90 -25z"/>
<path d="M1900 165 l0 -145 35 0 35 0 0 51 c0 48 1 50 23 42 43 -15 80 -7 104
23 28 36 30 88 4 130 -24 39 -62 50 -103 29 -38 -18 -38 -18 -38 0 0 10 -10
15 -30 15 l-30 0 0 -145z m140 76 c25 -47 0 -98 -43 -87 -23 5 -27 12 -27 40
0 19 3 41 6 50 9 22 51 20 64 -3z"/>
<path d="M2230 303 c-8 -3 -27 -17 -42 -31 -22 -20 -28 -35 -28 -68 0 -35 5
-47 31 -68 36 -31 69 -41 105 -32 73 19 106 77 80 141 -21 50 -91 78 -146 58z
m75 -98 c0 -45 -2 -50 -23 -53 -32 -5 -52 15 -52 52 0 39 17 58 50 54 23 -3
25 -7 25 -53z"/>
<path d="M2430 205 l0 -105 35 0 c30 0 40 7 72 50 20 28 41 50 45 50 4 0 8
-22 8 -50 0 -49 1 -50 30 -50 l30 0 0 105 0 105 -30 0 c-24 0 -37 -10 -67 -50
-20 -27 -41 -50 -45 -50 -4 0 -8 23 -8 50 l0 50 -35 0 -35 0 0 -105z"/>
<path d="M3010 205 l0 -105 35 0 c34 0 35 1 35 40 l0 40 40 0 40 0 0 -40 c0
-39 1 -40 35 -40 l35 0 0 105 0 105 -35 0 c-34 0 -35 -1 -35 -40 l0 -40 -40 0
-40 0 0 40 c0 39 -1 40 -35 40 l-35 0 0 -105z"/>
</g>
</svg>
